<svg width="15" height="20" viewBox="0 0 15 20" fill="none" xmlns="http://www.w3.org/2000/svg">
<path d="M10.8587 5.66333C11.762 6.56422 12.2772 7.79382 12.2909 9.0817L12.2885 9.08459C12.2891 10.0744 11.9838 11.0392 11.416 11.8423C11.9839 12.6455 12.2892 13.6105 12.2885 14.6004C12.2748 15.8883 11.7596 17.1179 10.8563 18.0188C9.95292 18.9197 8.7354 19.4181 7.47147 19.4044H2.62967C2.29434 18.981 1.98715 18.5352 1.71009 18.0701C1.19445 17.2064 0.788241 16.2796 0.501242 15.3119H7.47147C8.02127 15.3139 8.56378 15.1837 9.05498 14.932C9.54617 14.6803 9.97221 14.3142 10.2985 13.8633C10.3613 14.1032 10.3932 14.3505 10.3932 14.5988V14.6124C10.3885 14.9857 10.2731 15.3488 10.0622 15.6539C9.8512 15.9591 9.55452 16.1921 9.21117 16.3222C8.65544 16.5365 8.06606 16.6459 7.47187 16.6451H2.45707C2.70241 17.1409 2.98486 17.6168 3.30193 18.0684H7.47187C8.38474 18.0783 9.26411 17.7184 9.91654 17.0677C10.569 16.417 10.9411 15.529 10.9509 14.5988C10.9409 13.6687 10.5689 12.7806 9.91645 12.13C9.26404 11.4793 8.38471 11.1194 7.47187 11.1292H1.36117C1.34574 11.3647 1.33717 11.6018 1.33717 11.8411C1.33717 12.0803 1.34574 12.3175 1.36117 12.553H7.47271C8.02907 12.554 8.57771 12.4208 9.07387 12.1643C9.46045 12.4175 9.78261 12.7605 10.0138 13.1651C9.24816 13.6396 8.36887 13.8897 7.47271 13.8877H0.172254C0.0974602 13.4462 0.046985 13.0007 0.0211227 12.5534C0.0077184 12.3175 0 12.0807 0 11.8415C0 11.6023 0.0077184 11.3651 0.0211227 11.1296C0.046985 10.6823 0.0974602 10.2368 0.172254 9.79524H7.47271C8.55931 9.79231 9.61555 10.1604 10.4728 10.8407C10.7867 10.3103 10.9522 9.70266 10.9517 9.08335C10.9417 8.15322 10.5696 7.26519 9.91724 6.61455C9.26483 5.96391 8.38555 5.60392 7.47271 5.61375H3.30277C2.9857 6.06539 2.70321 6.54125 2.45786 7.0371H7.4743C8.06849 7.03623 8.65792 7.14563 9.21364 7.35993C9.557 7.49006 9.85363 7.72302 10.0646 8.02819C10.2756 8.33335 10.391 8.69643 10.3956 9.06969V9.08335C10.3956 9.33166 10.3638 9.57889 10.301 9.81882C9.97466 9.36797 9.5486 9.00186 9.05741 8.75018C8.56622 8.49849 8.0237 8.36831 7.4739 8.37022H0.503671C0.790683 7.40251 1.19689 6.47575 1.71252 5.61208C1.98959 5.14694 2.29683 4.70116 2.63215 4.27771H7.4739C8.73783 4.26402 9.95535 4.76245 10.8587 5.66333Z" fill="#F4F4F5"/>
<path d="M15 4.09529C15 6.02829 13.433 7.59529 11.5 7.59529C9.567 7.59529 8 6.02829 8 4.09529C8 2.16229 9.567 0.595291 11.5 0.595291C13.433 0.595291 15 2.16229 15 4.09529Z" fill="url(#paint0_linear_0_463)"/>
<path fill-rule="evenodd" clip-rule="evenodd" d="M10.5772 4.745V6.4118H11.8772V4.745H13.5V3.445H11.8772V1.59484H10.5772V3.445H9V4.745H10.5772Z" fill="white"/>
<defs>
<linearGradient id="paint0_linear_0_463" x1="8" y1="0.595291" x2="15.0288" y2="7.71052" gradientUnits="userSpaceOnUse">
<stop stop-color="#FF3B61"/>
<stop offset="1" stop-color="#520D8C"/>
</linearGradient>
</defs>
</svg>
