<svg width="40" height="40" viewBox="0 0 40 40" fill="none" xmlns="http://www.w3.org/2000/svg">
<path d="M25 23.2434V30.1154C25 30.2039 24.9766 30.2908 24.932 30.3672C24.8875 30.4437 24.8235 30.5069 24.7465 30.5506C24.6696 30.5942 24.5824 30.6166 24.4939 30.6155C24.4055 30.6144 24.3189 30.5899 24.243 30.5444L20 27.9984L15.757 30.5444C15.6811 30.59 15.5944 30.6145 15.5058 30.6155C15.4173 30.6166 15.3301 30.594 15.2531 30.5503C15.1761 30.5066 15.1121 30.4432 15.0676 30.3666C15.0231 30.29 14.9998 30.203 15 30.1144V23.2444C13.7062 22.2085 12.766 20.7963 12.3095 19.203C11.8529 17.6096 11.9026 15.9138 12.4515 14.3499C13.0004 12.786 14.0216 11.4312 15.3738 10.4727C16.726 9.51426 18.3426 8.99945 20 8.99945C21.6575 8.99945 23.274 9.51426 24.6262 10.4727C25.9785 11.4312 26.9996 12.786 27.5485 14.3499C28.0975 15.9138 28.1471 17.6096 27.6906 19.203C27.234 20.7963 26.2939 22.2085 25 23.2444V23.2434ZM20 22.9984C21.5913 22.9984 23.1174 22.3663 24.2427 21.2411C25.3679 20.1159 26 18.5897 26 16.9984C26 15.4071 25.3679 13.881 24.2427 12.7558C23.1174 11.6306 21.5913 10.9984 20 10.9984C18.4087 10.9984 16.8826 11.6306 15.7574 12.7558C14.6322 13.881 14 15.4071 14 16.9984C14 18.5897 14.6322 20.1159 15.7574 21.2411C16.8826 22.3663 18.4087 22.9984 20 22.9984ZM20 20.9984C18.9391 20.9984 17.9217 20.577 17.1716 19.8269C16.4214 19.0767 16 18.0593 16 16.9984C16 15.9376 16.4214 14.9202 17.1716 14.17C17.9217 13.4199 18.9391 12.9984 20 12.9984C21.0609 12.9984 22.0783 13.4199 22.8284 14.17C23.5786 14.9202 24 15.9376 24 16.9984C24 18.0593 23.5786 19.0767 22.8284 19.8269C22.0783 20.577 21.0609 20.9984 20 20.9984Z" fill="white"/>
</svg>
