<svg width="40" height="40" viewBox="0 0 40 40" fill="none" xmlns="http://www.w3.org/2000/svg">
<rect width="40" height="40" rx="10" fill="url(#paint0_linear_0_374)"/>
<g clip-path="url(#clip0_0_374)">
<path d="M11.9 12H28.1C28.3387 12 28.5676 12.0937 28.7364 12.2603C28.9052 12.427 29 12.6531 29 12.8889V27.1111C29 27.3469 28.9052 27.573 28.7364 27.7397C28.5676 27.9064 28.3387 28 28.1 28H11.9C11.6613 28 11.4324 27.9064 11.2636 27.7397C11.0948 27.573 11 27.3469 11 27.1111V12.8889C11 12.6531 11.0948 12.427 11.2636 12.2603C11.4324 12.0937 11.6613 12 11.9 12ZM27.2 20H12.8V26.2222H27.2V20ZM27.2 16.4444V13.7778H12.8V16.4444H27.2Z" fill="white"/>
</g>
<defs>
<linearGradient id="paint0_linear_0_374" x1="0" y1="0" x2="40.1646" y2="40.6584" gradientUnits="userSpaceOnUse">
<stop stop-color="#FF3B61"/>
<stop offset="1" stop-color="#520D8C"/>
</linearGradient>
<clipPath id="clip0_0_374">
<rect width="24" height="24" fill="white" transform="translate(8 8)"/>
</clipPath>
</defs>
</svg>
