<svg width="35" height="35" viewBox="0 0 35 35" fill="none" xmlns="http://www.w3.org/2000/svg">
<mask id="mask0_0_424" style="mask-type:alpha" maskUnits="userSpaceOnUse" x="0" y="0" width="35" height="35">
<path d="M35 35L3.0598e-06 -3.35774e-05L35 -3.05176e-05L35 35Z" fill="white"/>
</mask>
<g mask="url(#mask0_0_424)">
<path d="M23.977 26.469V24.9355H19.3669V20.335H23.977V23.402H27.0504V26.469H25.5137V29.5361H22.4403V32.6031H19.3669V28.0025H22.4403V26.469H23.977ZM31.6604 31.6031C31.6604 32.1553 31.2127 32.6031 30.6604 32.6031H25.5137V29.5361H28.5871V26.469H31.6604V31.6031ZM4 5.99997C4 5.44769 4.44772 4.99997 5 4.99997H16.2935V17.268H4V5.99997ZM7.07338 8.06698V14.201H13.2201V8.06698H7.07338ZM19.3669 4.99997H30.6604C31.2127 4.99997 31.6604 5.44768 31.6604 5.99997V17.268H19.3669V4.99997ZM22.4403 8.06698V14.201H28.5871V8.06698H22.4403ZM4 20.335H16.2935V32.6031H5C4.44772 32.6031 4 32.1553 4 31.6031V20.335ZM7.07338 23.402V29.5361H13.2201V23.402H7.07338ZM27.0504 20.335H31.6604V23.402H27.0504V20.335ZM8.61007 9.60048H11.6835V12.6675H8.61007V9.60048ZM8.61007 24.9355H11.6835V28.0025H8.61007V24.9355ZM23.977 9.60048H27.0504V12.6675H23.977V9.60048Z" fill="#C4C4C4"/>
</g>
</svg>
