<svg width="14" height="14" viewBox="0 0 14 14" fill="none" xmlns="http://www.w3.org/2000/svg">
<path d="M11 8.5942H9V9.92753H11V8.5942Z" fill="white"/>
<path fill-rule="evenodd" clip-rule="evenodd" d="M3.50518 1.92753H0.999995C0.631805 1.92753 0.333328 2.22601 0.333328 2.5942V13.2609C0.333328 13.6291 0.631805 13.9275 0.999995 13.9275H13C13.3682 13.9275 13.6667 13.6291 13.6667 13.2609V5.26087C13.6667 4.89268 13.3682 4.5942 13 4.5942H11V1.92753H8.49481C7.95664 1.12354 7.04013 0.594198 6 0.594198C4.95986 0.594198 4.04335 1.12354 3.50518 1.92753ZM7.33345 4.5942C7.54268 4.31564 7.66666 3.9694 7.66666 3.5942C7.66666 2.67372 6.92047 1.92753 6 1.92753C5.07952 1.92753 4.33333 2.67372 4.33333 3.5942C4.33333 3.9694 4.45731 4.31564 4.66654 4.5942H7.33345ZM1.66666 5.92753V12.5942H12.3333V5.92753H1.66666ZM3.1707 4.5942H1.66666V3.26086H3.0183C3.00621 3.37031 2.99999 3.48153 2.99999 3.5942C2.99999 3.94483 3.06015 4.28142 3.1707 4.5942ZM8.98169 3.26086H9.66666V4.5942H8.82929C8.93984 4.28142 9 3.94483 9 3.5942C9 3.48153 8.99378 3.37031 8.98169 3.26086Z" fill="white"/>
</svg>
