<svg width="25" height="24" viewBox="0 0 25 24" fill="none" xmlns="http://www.w3.org/2000/svg">
<path d="M14.9 22.5L12.1 19H6.89999C6.63478 19 6.38042 18.8946 6.19289 18.7071C6.00535 18.5196 5.89999 18.2652 5.89999 18V7.103C5.89999 6.83778 6.00535 6.58343 6.19289 6.39589C6.38042 6.20836 6.63478 6.103 6.89999 6.103H22.9C23.1652 6.103 23.4196 6.20836 23.6071 6.39589C23.7946 6.58343 23.9 6.83778 23.9 7.103V18C23.9 18.2652 23.7946 18.5196 23.6071 18.7071C23.4196 18.8946 23.1652 19 22.9 19H17.7L14.9 22.5ZM16.739 17H21.9V8.103H7.89999V17H13.061L14.9 19.298L16.739 17ZM2.89999 2H19.9V4H3.89999V15H1.89999V3C1.89999 2.73478 2.00535 2.48043 2.19289 2.29289C2.38042 2.10536 2.63478 2 2.89999 2Z" fill="#91969F"/>
</svg>
