<svg width="25" height="24" viewBox="0 0 25 24" fill="none" xmlns="http://www.w3.org/2000/svg">
<g clip-path="url(#clip0_0_512)">
<path d="M12.5 11C13.8261 11 15.0978 11.5268 16.0355 12.4645C16.9732 13.4021 17.5 14.6739 17.5 16V22H15.5V16C15.5 15.2348 15.2077 14.4985 14.6827 13.9417C14.1578 13.385 13.4399 13.0499 12.676 13.005L12.5 13C11.7348 13 10.9985 13.2923 10.4417 13.8173C9.88499 14.3422 9.54989 15.0601 9.505 15.824L9.5 16V22H7.5V16C7.5 14.6739 8.02678 13.4021 8.96446 12.4645C9.90214 11.5268 11.1739 11 12.5 11ZM6 14C6.279 14 6.55 14.033 6.81 14.094C6.63902 14.603 6.53777 15.1328 6.509 15.669L6.5 16V16.086C6.38505 16.0449 6.26549 16.018 6.144 16.006L6 16C5.62711 16 5.26761 16.1389 4.99158 16.3896C4.71555 16.6403 4.54279 16.9848 4.507 17.356L4.5 17.5V22H2.5V17.5C2.5 16.5717 2.86875 15.6815 3.52512 15.0251C4.1815 14.3687 5.07174 14 6 14ZM19 14C19.9283 14 20.8185 14.3687 21.4749 15.0251C22.1312 15.6815 22.5 16.5717 22.5 17.5V22H20.5V17.5C20.5 17.1271 20.3611 16.7676 20.1104 16.4916C19.8597 16.2156 19.5152 16.0428 19.144 16.007L19 16C18.825 16 18.657 16.03 18.5 16.085V16C18.5 15.334 18.392 14.694 18.191 14.096C18.45 14.033 18.721 14 19 14ZM6 8C6.66304 8 7.29892 8.26339 7.76776 8.73223C8.2366 9.20107 8.5 9.83696 8.5 10.5C8.5 11.163 8.2366 11.7989 7.76776 12.2678C7.29892 12.7366 6.66304 13 6 13C5.33696 13 4.70107 12.7366 4.23223 12.2678C3.76339 11.7989 3.5 11.163 3.5 10.5C3.5 9.83696 3.76339 9.20107 4.23223 8.73223C4.70107 8.26339 5.33696 8 6 8ZM19 8C19.663 8 20.2989 8.26339 20.7678 8.73223C21.2366 9.20107 21.5 9.83696 21.5 10.5C21.5 11.163 21.2366 11.7989 20.7678 12.2678C20.2989 12.7366 19.663 13 19 13C18.337 13 17.7011 12.7366 17.2322 12.2678C16.7634 11.7989 16.5 11.163 16.5 10.5C16.5 9.83696 16.7634 9.20107 17.2322 8.73223C17.7011 8.26339 18.337 8 19 8ZM6 10C5.86739 10 5.74021 10.0527 5.64644 10.1464C5.55267 10.2402 5.5 10.3674 5.5 10.5C5.5 10.6326 5.55267 10.7598 5.64644 10.8536C5.74021 10.9473 5.86739 11 6 11C6.1326 11 6.25978 10.9473 6.35355 10.8536C6.44732 10.7598 6.5 10.6326 6.5 10.5C6.5 10.3674 6.44732 10.2402 6.35355 10.1464C6.25978 10.0527 6.1326 10 6 10ZM19 10C18.8674 10 18.7402 10.0527 18.6464 10.1464C18.5527 10.2402 18.5 10.3674 18.5 10.5C18.5 10.6326 18.5527 10.7598 18.6464 10.8536C18.7402 10.9473 18.8674 11 19 11C19.1326 11 19.2598 10.9473 19.3535 10.8536C19.4473 10.7598 19.5 10.6326 19.5 10.5C19.5 10.3674 19.4473 10.2402 19.3535 10.1464C19.2598 10.0527 19.1326 10 19 10ZM12.5 2C13.5609 2 14.5783 2.42143 15.3284 3.17157C16.0786 3.92172 16.5 4.93913 16.5 6C16.5 7.06087 16.0786 8.07828 15.3284 8.82843C14.5783 9.57857 13.5609 10 12.5 10C11.4391 10 10.4217 9.57857 9.67157 8.82843C8.92142 8.07828 8.5 7.06087 8.5 6C8.5 4.93913 8.92142 3.92172 9.67157 3.17157C10.4217 2.42143 11.4391 2 12.5 2ZM12.5 4C11.9696 4 11.4609 4.21071 11.0858 4.58579C10.7107 4.96086 10.5 5.46957 10.5 6C10.5 6.53043 10.7107 7.03914 11.0858 7.41421C11.4609 7.78929 11.9696 8 12.5 8C13.0304 8 13.5391 7.78929 13.9142 7.41421C14.2893 7.03914 14.5 6.53043 14.5 6C14.5 5.46957 14.2893 4.96086 13.9142 4.58579C13.5391 4.21071 13.0304 4 12.5 4Z" fill="#91969F"/>
</g>
<defs>
<clipPath id="clip0_0_512">
<rect width="24" height="24" fill="white" transform="translate(0.499996)"/>
</clipPath>
</defs>
</svg>
