<svg width="25" height="24" viewBox="0 0 25 24" fill="none" xmlns="http://www.w3.org/2000/svg">
<g clip-path="url(#clip0_0_524)">
<path d="M12.7 2L7.2 11H18.2L12.7 2ZM12.7 5.84L14.63 9H10.76L12.7 5.84ZM18.2 13C15.71 13 13.7 15.01 13.7 17.5C13.7 19.99 15.71 22 18.2 22C20.69 22 22.7 19.99 22.7 17.5C22.7 15.01 20.69 13 18.2 13ZM18.2 20C16.82 20 15.7 18.88 15.7 17.5C15.7 16.12 16.82 15 18.2 15C19.58 15 20.7 16.12 20.7 17.5C20.7 18.88 19.58 20 18.2 20ZM3.7 21.5H11.7V13.5H3.7V21.5ZM5.7 15.5H9.7V19.5H5.7V15.5Z" fill="#91969F"/>
</g>
<defs>
<clipPath id="clip0_0_524">
<rect width="24" height="24" fill="white" transform="translate(0.699997)"/>
</clipPath>
</defs>
</svg>
