<svg width="25" height="24" viewBox="0 0 25 24" fill="none" xmlns="http://www.w3.org/2000/svg">
<path fill-rule="evenodd" clip-rule="evenodd" d="M21.0071 21.0735C21.1946 20.8859 21.3 20.6316 21.3 20.3664V9.85636C21.3001 9.70397 21.2654 9.55358 21.1985 9.41666C21.1316 9.27974 21.0343 9.15993 20.914 9.06636L12.914 2.84436C12.7385 2.70781 12.5224 2.63367 12.3 2.63367C12.0776 2.63367 11.8615 2.70781 11.686 2.84436L3.686 9.06636C3.56572 9.15993 3.46842 9.27974 3.40152 9.41666C3.33462 9.55358 3.2999 9.70397 3.3 9.85636V20.3664C3.3 20.6316 3.40536 20.8859 3.5929 21.0735C3.78043 21.261 4.03479 21.3664 4.3 21.3664H20.3C20.5652 21.3664 20.8196 21.261 21.0071 21.0735ZM13.3 19.3663V13.3663H11.3V19.3663H13.3Z" fill="url(#paint0_linear_0_498)"/>
<defs>
<linearGradient id="paint0_linear_0_498" x1="3.3" y1="2.63367" x2="22.104" y2="20.9243" gradientUnits="userSpaceOnUse">
<stop stop-color="#FF3B61"/>
<stop offset="1" stop-color="#520D8C"/>
</linearGradient>
</defs>
</svg>
