<svg width="20" height="20" viewBox="0 0 20 20" fill="none" xmlns="http://www.w3.org/2000/svg">
<g clip-path="url(#clip0_0_414)">
<path d="M15 5.8333H17.5C17.721 5.8333 17.933 5.9211 18.0893 6.07738C18.2455 6.23366 18.3333 6.44562 18.3333 6.66664V16.6666C18.3333 16.8876 18.2455 17.0996 18.0893 17.2559C17.933 17.4122 17.721 17.5 17.5 17.5H2.50001C2.27899 17.5 2.06703 17.4122 1.91075 17.2559C1.75447 17.0996 1.66667 16.8876 1.66667 16.6666V3.3333C1.66667 3.11229 1.75447 2.90033 1.91075 2.74405C2.06703 2.58777 2.27899 2.49997 2.50001 2.49997H15V5.8333ZM3.33334 7.49997V15.8333H16.6667V7.49997H3.33334ZM3.33334 4.16664V5.8333H13.3333V4.16664H3.33334ZM15 11.6666H17.5V12.5H15V11.6666Z" fill="white"/>
<path d="M10.8333 11.664H13.3333L10 14.9974L6.66667 11.664H9.16667V8.3307H10.8333V11.664Z" fill="white"/>
</g>
<defs>
<clipPath id="clip0_0_414">
<rect width="20" height="20" fill="white"/>
</clipPath>
</defs>
</svg>
