<svg width="26" height="33" viewBox="0 0 26 33" fill="none" xmlns="http://www.w3.org/2000/svg">
<path d="M22.8494 3.24563C24.6933 5.15085 25.7449 7.75122 25.7729 10.4749L25.768 10.481C25.7692 12.5742 25.1461 14.6147 23.987 16.3131C25.1463 18.0116 25.7694 20.0525 25.768 22.146C25.74 24.8697 24.6884 27.47 22.8444 29.3753C21.0005 31.2805 18.5152 32.3345 15.9352 32.3056H6.0519C5.36741 31.4101 4.74036 30.4673 4.17481 29.4837C3.12225 27.6572 2.29308 25.6972 1.70724 23.6507H15.9352C17.0575 23.6548 18.1649 23.3795 19.1676 22.8472C20.1702 22.315 21.0399 21.5406 21.706 20.5871C21.8342 21.0945 21.8991 21.6174 21.8992 22.1425V22.1714C21.8897 22.9608 21.6542 23.7286 21.2235 24.374C20.7929 25.0194 20.1873 25.5121 19.4864 25.7873C18.352 26.2405 17.1489 26.4719 15.936 26.47H5.69958C6.20039 27.5187 6.77692 28.525 7.42415 29.4801H15.936C17.7994 29.5011 19.5945 28.7399 20.9262 27.3639C22.258 25.9878 23.0175 24.1097 23.0376 22.1425C23.0173 20.1755 22.2578 18.2974 20.926 16.9214C19.5943 15.5455 17.7994 14.7842 15.936 14.8049H3.46258C3.43107 15.303 3.41359 15.8045 3.41359 16.3104C3.41359 16.8164 3.43107 17.3179 3.46258 17.816H15.9378C17.0734 17.8181 18.1934 17.5365 19.2061 16.9941C19.9952 17.5294 20.6529 18.2548 21.1248 19.1105C19.5619 20.114 17.767 20.6428 15.9378 20.6388H1.0357C0.883023 19.705 0.77999 18.7628 0.727199 17.8168C0.699837 17.3179 0.684082 16.8172 0.684082 16.3113C0.684082 15.8054 0.699837 15.3039 0.727199 14.8058C0.77999 13.8598 0.883023 12.9177 1.0357 11.9839H15.9378C18.1558 11.9777 20.3118 12.7561 22.0618 14.1949C22.7024 13.0732 23.0404 11.7881 23.0393 10.4784C23.0189 8.51129 22.2594 6.63327 20.9277 5.25727C19.5959 3.88128 17.8011 3.11998 15.9378 3.14076H7.42587C6.77865 4.09591 6.20202 5.10226 5.7012 6.15089H15.941C17.1539 6.14906 18.3571 6.38041 19.4914 6.83362C20.1923 7.10883 20.7978 7.6015 21.2285 8.24687C21.6591 8.89224 21.8947 9.66009 21.9042 10.4495V10.4784C21.9041 11.0035 21.8392 11.5263 21.7111 12.0337C21.0449 11.0803 20.1752 10.306 19.1725 9.77375C18.1699 9.24147 17.0625 8.96617 15.9402 8.9702H1.7122C2.29806 6.92367 3.12723 4.96374 4.17977 3.13723C4.74534 2.15355 5.37249 1.21081 6.05697 0.315278H15.9402C18.5202 0.286336 21.0055 1.34041 22.8494 3.24563Z" fill="url(#paint0_linear_0_422)"/>
<defs>
<linearGradient id="paint0_linear_0_422" x1="0.684082" y1="16.3096" x2="25.7729" y2="16.3096" gradientUnits="userSpaceOnUse">
<stop stop-color="#D7D0E6"/>
<stop offset="1" stop-color="#A2B3CA"/>
</linearGradient>
</defs>
</svg>
