<svg width="27" height="27" viewBox="0 0 27 27" fill="none" xmlns="http://www.w3.org/2000/svg">
<path d="M13.5791 14.5517C14.1594 14.5517 14.6299 14.0808 14.6299 13.5C14.6299 12.9191 14.1594 12.4482 13.5791 12.4482C12.9988 12.4482 12.5284 12.9191 12.5284 13.5C12.5284 14.0808 12.9988 14.5517 13.5791 14.5517Z" stroke="white" stroke-width="2" stroke-linecap="round" stroke-linejoin="round"/>
<path d="M20.9343 14.5517C21.5146 14.5517 21.9851 14.0808 21.9851 13.5C21.9851 12.9191 21.5146 12.4482 20.9343 12.4482C20.354 12.4482 19.8836 12.9191 19.8836 13.5C19.8836 14.0808 20.354 14.5517 20.9343 14.5517Z" stroke="white" stroke-width="2" stroke-linecap="round" stroke-linejoin="round"/>
<path d="M6.22389 14.5517C6.8042 14.5517 7.27463 14.0808 7.27463 13.5C7.27463 12.9191 6.8042 12.4482 6.22389 12.4482C5.64358 12.4482 5.17314 12.9191 5.17314 13.5C5.17314 14.0808 5.64358 14.5517 6.22389 14.5517Z" stroke="white" stroke-width="2" stroke-linecap="round" stroke-linejoin="round"/>
</svg>
