<svg width="20" height="20" viewBox="0 0 20 20" fill="none" xmlns="http://www.w3.org/2000/svg">
<g clip-path="url(#clip0_0_408)">
<path d="M16.6667 6.66664V4.16664H3.33333V6.66664H16.6667ZM16.6667 8.3333H3.33333V15.8333H16.6667V8.3333ZM2.5 2.49997H17.5C17.721 2.49997 17.933 2.58777 18.0893 2.74405C18.2455 2.90033 18.3333 3.11229 18.3333 3.3333V16.6666C18.3333 16.8876 18.2455 17.0996 18.0893 17.2559C17.933 17.4122 17.721 17.5 17.5 17.5H2.5C2.27899 17.5 2.06703 17.4122 1.91075 17.2559C1.75447 17.0996 1.66667 16.8876 1.66667 16.6666V3.3333C1.66667 3.11229 1.75447 2.90033 1.91075 2.74405C2.06703 2.58777 2.27899 2.49997 2.5 2.49997Z" fill="white"/>
<path d="M10.5236 9.69107V11.3577H6.35693V13.0244H10.5236V14.6911L13.8569 12.1911L10.5236 9.69107Z" fill="white"/>
</g>
<defs>
<clipPath id="clip0_0_408">
<rect width="20" height="20" fill="white"/>
</clipPath>
</defs>
</svg>
